<?xml version="1.0" encoding="UTF-8"?>
<!-- My Brand New Logo (1.0.87), id: jjmQn4w8yZF7Jp3p9l5p (1.0.7), date: 2021-08-18 00:36 -->
<svg version="1.1" preserveAspectRatio="xMidYMid meet" xmlns="http://www.w3.org/2000/svg" xmlns:xlink="http://www.w3.org/1999/xlink" viewBox="33.409 379.466 933.182 241.068" width="1000" height="258">
	<defs>
		<path id="def-1" d="M266.021,500 A112.245,112.245 0 1 0 41.531,500 A112.245,112.245 0 1 0 266.021,500 Z" stroke-linecap="round" stroke-linejoin="round" stroke-miterlimit="25"></path>
		<g id="def-2">
			<path d="M49.313,500 A104.462,104.462 0 1 0 258.238,500 A104.462,104.462 0 1 0 49.313,500 Z M253.931,500 A100.155,100.155 0 1 1 53.621,500 A100.155,100.155 0 1 1 253.931,500 Z" fill="#000"></path>
			<use xlink:href="#def-1" fill="none" stroke="#000" stroke-width="3.574"></use>
		</g>
		<g id="def-3" transform="matrix(1.131, 0, 0, 1.131, 96.682, 444.827)" fill="#000" stroke="none" stroke-width="1">
			<g transform="translate(0.501, 0.5)">
				<g></g>
				<path fill="#000" d=" M80.989,6.423 C62.306 -4.253,44.597,1.167,39.613,3.083 c-4.997,1.924 -9.272,6.055 -10.914,7.781 c-0.684 -0.358 -1.502 -0.721 -2.499 -1.078 C21.176,7.988,14.274,9.485,9.028,13.51 c-3.774,2.895 -9.951,9.651 -8.912,22.374 C1.163,48.719,8.662,54.924,14.383,57.82 c-0.187,0.255 -0.3,0.566 -0.3,0.906 V76.17 v0.001 h-2.754 c-0.85,0 -1.54,0.689 -1.54,1.539 c0,0.001,0,0.001,0,0.001 c0,0.001,0,0.002,0,0.002 L9.786,95.061 c0,0.85,0.689,1.539,1.539,1.539 c0,0,0,0,0,0 c0,0,0.001,0,0.001,0 s0.001,0,0.001,0 l75.098,0.003 c0.85,0,1.539 -0.689,1.539 -1.539 c0 -0.072 -0.013 -0.141 -0.021 -0.211 c0.009 -0.07,0.021 -0.14,0.021 -0.212 V78.223 c0 -0.088 -0.013 -0.172 -0.026 -0.255 c0.014 -0.083,0.026 -0.167,0.026 -0.255 c0 -0.85 -0.689 -1.539 -1.539 -1.539 l-69.266 -0.003 V76.17 V59.053 c2.246,0.854,3.806,1.122,3.86,1.13 c0.068,0.011,0.136,0.016,0.203,0.016 c0.62,0,1.165 -0.449,1.265 -1.081 c0.111 -0.699 -0.365 -1.356 -1.064 -1.468 c-0.172 -0.027 -17.2 -2.956 -18.752 -21.975 c-0.939 -11.511,4.557 -17.553,7.916 -20.13 c4.512 -3.46,10.578 -4.834,14.749 -3.342 c3.401,1.215,4.089,2.333,4.162,2.468 c0.188,0.628,0.827,1.02,1.482,0.886 c0.694 -0.14,1.144 -0.817,1.003 -1.511 c-0.057 -0.281 -0.281 -0.923 -1.13 -1.715 c1.685 -1.721,5.463 -5.229,9.68 -6.853 c4.717 -1.814,21.481 -6.943,39.182,3.173 c19.007,10.864,17.837,26.578,17.642,28.334 l-0.028,0.249 c-0.376,3.41 -1.375,12.466 -7.864,16.375 c-4.49,2.704 -10.894,2.558 -19.038 -0.424 c0.729 -0.668,1.46 -1.378,2.194 -2.18 c0.479 -0.522,0.443 -1.334 -0.08 -1.812 c-0.521 -0.478 -1.334 -0.442 -1.812,0.08 c-3.818,4.169 -7.412,6.288 -10.686,6.298 c-0.008,0 -0.015,0 -0.021,0 c-3.901,0 -6.717 -3.04 -8.4 -4.856 c-0.298 -0.322 -0.563 -0.609 -0.797 -0.841 c-0.501 -0.499 -1.313 -0.497 -1.814,0.006 c-0.499,0.502 -0.497,1.314,0.006,1.813 c0.211,0.211,0.452,0.472,0.724,0.764 c1.839,1.986,5.259,5.68,10.282,5.68 c0.009,0,0.019,0,0.028,0 c2.622 -0.009,5.332 -1.05,8.101 -3.069 c4.688,1.851,8.904,2.845,12.631,2.999 V76.17 h3.079 V57.993 c2.595 -0.249,4.912 -0.972,6.927 -2.186 c7.576 -4.563,8.678 -14.538,9.092 -18.292 l0.026 -0.246 C100.122,35.342,101.419,18.1,80.989,6.423 z M84.887,93.525 l-43.098 -0.002 V79.251 l43.098,0.002 V93.525 z M38.71,93.523 H33.58 V79.251 h5.131 V93.523 z M30.501,93.523 h-5.13 V79.251 h5.13 V93.523 z M22.292,93.522 h-9.427 l0.002 -14.271 h9.425 V93.522 z"></path>
			</g>
		</g>
		<mask id="mask-1" x="-1.988" y="344.068" width="311.529" height="311.864" maskUnits="userSpaceOnUse" stroke-width="0">
			<rect x="12.172" y="358.229" width="283.208" height="283.543" fill="#fff"></rect>
			<use xlink:href="#def-2"></use>
			<use xlink:href="#def-3"></use>
		</mask>
		<g id="def-4" mask="url(#mask-1)">
			<use xlink:href="#def-1" stroke-width="11.517"></use>
		</g>
		<path id="def-5" d="M375.47,451.494 Q375.47,461.375,371.381,467.551 Q367.292,473.726,359.313,475.362 L359.313,475.362 Q366.39,477.298,374.836,478.266 L374.836,478.266 L373.033,486.779 Q356.209,484.275,346.528,479.618 Q336.847,474.962,332.842,468.168 Q328.836,461.375,328.836,451.728 L328.836,451.728 Q328.836,443.182,331.69,437.474 Q334.544,431.765,339.768,428.961 Q344.993,426.157,352.17,426.157 L352.17,426.157 Q359.347,426.157,364.571,428.945 Q369.795,431.732,372.633,437.407 Q375.47,443.082,375.47,451.494 L375.47,451.494 Z M340.019,451.26 Q340.019,460.14,343.09,464.096 Q346.161,468.051,352.17,468.051 L352.17,468.051 Q358.078,468.051,361.183,464.146 Q364.287,460.24,364.287,451.728 L364.287,451.728 Q364.287,442.915,361.166,438.926 Q358.045,434.937,352.17,434.937 L352.17,434.937 Q346.261,434.937,343.14,438.842 Q340.019,442.748,340.019,451.26 L340.019,451.26 Z M402.543,476.831 Q396.701,476.831,393.313,473.376 Q389.925,469.921,389.925,462.51 L389.925,462.51 L389.925,439.677 L400.607,439.677 L400.607,461.809 Q400.607,464.947,401.892,466.282 Q403.177,467.617,405.581,467.617 L405.581,467.617 Q407.35,467.617,409.153,466.85 Q410.955,466.082,412.157,464.646 L412.157,464.646 L412.157,439.677 L422.839,439.677 L422.839,476.197 L414.026,476.197 L413.292,472.525 L412.858,472.525 Q410.755,474.661,408.134,475.746 Q405.514,476.831,402.543,476.831 L402.543,476.831 Z M449.445,476.197 L438.762,476.197 L438.762,439.677 L449.445,439.677 L449.445,476.197 Z M444.103,434.369 Q440.799,434.369,439.146,432.934 Q437.494,431.498,437.494,428.828 L437.494,428.828 Q437.494,426.124,439.13,424.688 Q440.765,423.253,444.103,423.253 L444.103,423.253 Q447.408,423.253,449.044,424.688 Q450.68,426.124,450.68,428.828 L450.68,428.828 Q450.68,431.498,449.044,432.934 Q447.408,434.369,444.103,434.369 L444.103,434.369 Z M482.726,476.898 Q473.446,476.898,468.589,472.174 Q463.732,467.451,463.732,458.003 L463.732,458.003 Q463.732,448.49,468.89,443.799 Q474.047,439.109,483.828,439.109 L483.828,439.109 Q488.368,439.109,492.007,439.944 L492.007,439.944 L492.007,448.389 Q488.501,447.688,485.297,447.688 L485.297,447.688 Q481.591,447.688,479.271,448.723 Q476.951,449.758,475.85,452.011 Q474.748,454.265,474.748,457.903 L474.748,457.903 Q474.748,463.411,477.118,465.848 Q479.488,468.285,484.395,468.285 L484.395,468.285 Q486.098,468.285,487.867,468.001 Q489.636,467.718,492.007,467.083 L492.007,467.083 L492.007,475.529 Q487.8,476.898,482.726,476.898 L482.726,476.898 Z M542.68,476.197 L531.063,476.197 L521.082,461.709 L516.809,461.709 L516.809,476.197 L506.127,476.197 L506.127,422.251 L516.809,422.251 L516.809,453.163 L521.015,453.163 L530.129,439.677 L541.512,439.677 L529.895,457.236 L542.68,476.197 Z M574.861,461.609 L552.261,461.609 L552.261,452.929 L574.861,452.929 L574.861,461.609 Z M601.967,455.266 L601.967,467.517 L626.302,467.517 L626.302,476.197 L591.218,476.197 L591.218,426.791 L625.968,426.791 L625.968,435.471 L601.967,435.471 L601.967,446.587 L622.563,446.587 L622.563,455.266 L601.967,455.266 Z M662.254,461.609 L639.655,461.609 L639.655,452.929 L662.254,452.929 L662.254,461.609 Z M719.571,476.197 L707.721,476.197 L695.102,458.07 L694.501,458.07 Q692.165,458.07,689.327,457.903 L689.327,457.903 L689.327,476.197 L678.612,476.197 L678.612,427.893 Q682.15,427.125,686.156,426.658 Q690.162,426.191,694.067,426.191 L694.067,426.191 Q704.783,426.191,710.124,430.08 Q715.465,433.968,715.465,442.047 L715.465,442.047 Q715.465,447.321,712.912,450.927 Q710.358,454.532,705.551,456.334 L705.551,456.334 L719.571,476.197 Z M689.327,434.703 L689.327,449.691 Q692.131,449.992,694.702,449.992 L694.702,449.992 Q700.11,449.992,702.68,448.122 Q705.25,446.253,705.25,442.08 L705.25,442.08 Q705.25,437.974,702.797,436.088 Q700.343,434.202,695.169,434.202 L695.169,434.202 Q692.231,434.202,689.327,434.703 L689.327,434.703 Z M761.132,458.237 L761.132,461.041 L738.966,461.041 Q739.133,463.979,740.218,465.665 Q741.303,467.35,743.606,468.102 Q745.91,468.853,749.882,468.853 L749.882,468.853 Q754.055,468.853,759.095,467.684 L759.095,467.684 L759.095,475.663 Q753.754,476.898,748.38,476.898 L748.38,476.898 Q741.403,476.898,736.98,474.911 Q732.557,472.925,730.42,468.752 Q728.284,464.58,728.284,457.903 L728.284,457.903 Q728.284,451.895,730.27,447.672 Q732.256,443.449,736.062,441.279 Q739.867,439.109,745.275,439.109 L745.275,439.109 Q753.02,439.109,757.076,444 Q761.132,448.89,761.132,458.237 L761.132,458.237 Z M745.142,445.852 Q742.104,445.852,740.568,447.922 Q739.033,449.992,738.933,454.866 L738.933,454.866 L751.184,454.866 Q751.084,449.958,749.615,447.905 Q748.146,445.852,745.142,445.852 L745.142,445.852 Z M792.344,476.898 Q783.064,476.898,778.207,472.174 Q773.35,467.451,773.35,458.003 L773.35,458.003 Q773.35,448.49,778.507,443.799 Q783.665,439.109,793.445,439.109 L793.445,439.109 Q797.985,439.109,801.624,439.944 L801.624,439.944 L801.624,448.389 Q798.119,447.688,794.914,447.688 L794.914,447.688 Q791.209,447.688,788.889,448.723 Q786.569,449.758,785.467,452.011 Q784.366,454.265,784.366,457.903 L784.366,457.903 Q784.366,463.411,786.736,465.848 Q789.106,468.285,794.013,468.285 L794.013,468.285 Q795.715,468.285,797.485,468.001 Q799.254,467.718,801.624,467.083 L801.624,467.083 L801.624,475.529 Q797.418,476.898,792.344,476.898 L792.344,476.898 Z M826.427,476.197 L815.745,476.197 L815.745,439.677 L826.427,439.677 L826.427,476.197 Z M821.086,434.369 Q817.781,434.369,816.128,432.934 Q814.476,431.498,814.476,428.828 L814.476,428.828 Q814.476,426.124,816.112,424.688 Q817.747,423.253,821.086,423.253 L821.086,423.253 Q824.391,423.253,826.026,424.688 Q827.662,426.124,827.662,428.828 L827.662,428.828 Q827.662,431.498,826.026,432.934 Q824.391,434.369,821.086,434.369 L821.086,434.369 Z M842.383,490.885 L842.383,439.677 L851.33,439.677 L851.997,443.549 L852.498,443.549 Q854.1,441.479,856.587,440.294 Q859.074,439.109,862.212,439.109 L862.212,439.109 Q866.452,439.109,869.823,440.995 Q873.195,442.881,875.198,446.937 Q877.201,450.993,877.201,457.236 L877.201,457.236 Q877.201,466.816,872.11,471.84 Q867.019,476.864,857.305,476.864 L857.305,476.864 Q855.536,476.864,853.066,476.597 L853.066,476.597 L853.066,490.885 L842.383,490.885 Z M857.272,468.752 Q861.945,468.752,864.198,466.232 Q866.452,463.712,866.452,458.07 L866.452,458.07 Q866.452,452.395,864.549,450.109 Q862.646,447.822,859.074,447.822 L859.074,447.822 Q857.338,447.822,855.736,448.44 Q854.134,449.057,853.066,450.292 L853.066,450.292 L853.066,468.352 Q855.002,468.752,857.272,468.752 L857.272,468.752 Z M923.234,458.237 L923.234,461.041 L901.069,461.041 Q901.236,463.979,902.321,465.665 Q903.406,467.35,905.709,468.102 Q908.012,468.853,911.985,468.853 L911.985,468.853 Q916.157,468.853,921.198,467.684 L921.198,467.684 L921.198,475.663 Q915.857,476.898,910.483,476.898 L910.483,476.898 Q903.506,476.898,899.083,474.911 Q894.659,472.925,892.523,468.752 Q890.387,464.58,890.387,457.903 L890.387,457.903 Q890.387,451.895,892.373,447.672 Q894.359,443.449,898.165,441.279 Q901.97,439.109,907.378,439.109 L907.378,439.109 Q915.123,439.109,919.179,444 Q923.234,448.89,923.234,458.237 L923.234,458.237 Z M907.244,445.852 Q904.207,445.852,902.671,447.922 Q901.136,449.992,901.035,454.866 L901.035,454.866 L913.287,454.866 Q913.186,449.958,911.718,447.905 Q910.249,445.852,907.244,445.852 L907.244,445.852 Z M947.87,476.898 Q941.361,476.898,936.153,475.295 L936.153,475.295 L936.153,467.484 Q941.561,469.12,947.703,469.12 L947.703,469.12 Q951.175,469.12,952.727,468.202 Q954.28,467.284,954.28,465.514 L954.28,465.514 Q954.28,464.146,953.545,463.445 Q952.811,462.744,950.975,462.377 L950.975,462.377 L945.066,461.308 Q939.959,460.374,937.589,457.787 Q935.219,455.199,935.219,450.793 L935.219,450.793 Q935.219,447.221,937.121,444.601 Q939.024,441.98,942.88,440.545 Q946.735,439.109,952.444,439.109 L952.444,439.109 Q955.047,439.109,957.601,439.41 Q960.155,439.71,962.225,440.244 L962.225,440.244 L962.225,448.056 Q957.785,446.854,952.744,446.854 L952.744,446.854 Q945.133,446.854,945.133,450.526 L945.133,450.526 Q945.133,451.728,945.884,452.462 Q946.635,453.196,948.404,453.53 L948.404,453.53 L954.313,454.599 Q959.387,455.567,961.807,458.02 Q964.227,460.474,964.227,465.147 L964.227,465.147 Q964.227,468.786,962.308,471.423 Q960.389,474.06,956.7,475.479 Q953.011,476.898,947.87,476.898 L947.87,476.898 Z"></path>
		<path id="def-6" d="M328.421,518.329 L964.227,518.329 L964.227,523.67 L328.421,523.67 Z" stroke-miterlimit="25"></path>
		<path id="def-7" d="M340.007,572.522 L328.764,572.522 L328.764,553.829 L339.42,553.829 L339.42,555.618 L330.634,555.618 L330.634,561.974 L336.562,561.974 L336.562,563.736 L330.634,563.736 L330.634,570.733 L340.007,570.733 L340.007,572.522 Z M354.589,572.522 L353.28,572.522 L348.286,558.876 L350.209,558.876 L353.52,568.169 Q353.574,568.33,353.667,568.61 Q353.761,568.891,353.841,569.131 Q353.921,569.371,354.001,569.612 L354.001,569.612 Q354.081,569.371,354.161,569.131 Q354.241,568.891,354.335,568.61 Q354.428,568.33,354.482,568.169 L354.482,568.169 L357.713,558.876 L359.582,558.876 L354.589,572.522 Z M373.389,572.843 L373.389,572.843 Q370.719,572.843,369.09,570.76 Q367.461,568.677,367.461,565.686 L367.461,565.686 Q367.461,562.348,369.09,560.452 Q370.719,558.555,373.389,558.555 L373.389,558.555 Q375.739,558.555,377.262,560.225 Q378.784,561.894,378.784,565.152 L378.784,565.152 Q378.784,565.873,378.73,566.46 L378.73,566.46 L369.437,566.46 Q369.677,568.597,370.719,569.852 Q371.76,571.107,373.469,571.107 L373.469,571.107 Q375.098,571.107,376.54,570.039 L376.54,570.039 L377.555,571.294 Q375.686,572.843,373.389,572.843 Z M369.383,564.778 L369.383,564.778 L376.888,564.778 Q376.861,562.294,375.806,561.266 Q374.751,560.238,373.389,560.238 L373.389,560.238 Q371.68,560.238,370.585,561.386 Q369.49,562.535,369.383,564.778 Z M389.733,572.522 L387.864,572.522 L387.864,558.876 L389.733,558.876 L389.733,560.799 Q390.775,558.555,393.178,558.555 L393.178,558.555 Q394.326,558.555,395.101,559.116 L395.101,559.116 L394.807,560.932 Q393.979,560.425,393.045,560.425 L393.045,560.425 Q391.789,560.425,390.761,561.48 Q389.733,562.535,389.733,564.805 L389.733,564.805 L389.733,572.522 Z M406.851,577.703 L405.009,577.703 L407.038,572.095 L402.044,558.876 L403.94,558.876 L407.385,568.57 Q407.466,568.837,407.626,569.318 Q407.786,569.799,407.839,569.959 L407.839,569.959 L408.32,568.57 L411.819,558.876 L413.821,558.876 L406.851,577.703 Z M427.334,572.843 L427.334,572.843 Q424.717,572.843,423.208,570.907 Q421.7,568.971,421.7,565.686 L421.7,565.686 Q421.7,562.348,423.208,560.452 Q424.717,558.555,427.334,558.555 L427.334,558.555 Q429.364,558.555,430.966,559.837 L430.966,559.837 L430.966,554.176 L432.836,553.241 L432.836,572.522 L430.966,572.522 L430.966,571.347 Q429.471,572.843,427.334,572.843 Z M427.548,571.161 L427.548,571.161 Q428.59,571.161,429.498,570.6 Q430.406,570.039,430.966,569.024 L430.966,569.024 L430.966,562.214 Q429.738,560.238,427.548,560.238 L427.548,560.238 Q425.679,560.238,424.664,561.653 Q423.649,563.069,423.649,565.686 L423.649,565.686 Q423.649,568.036,424.717,569.598 Q425.786,571.161,427.548,571.161 Z M452.571,572.522 L450.835,572.522 L450.835,571.187 Q448.993,572.843,446.829,572.843 L446.829,572.843 Q444.693,572.843,443.438,571.655 Q442.183,570.466,442.183,568.223 L442.183,568.223 Q442.183,566.006,443.611,564.858 Q445.04,563.71,447.15,563.71 L447.15,563.71 Q449.046,563.71,450.835,564.671 L450.835,564.671 L450.835,563.523 Q450.835,560.185,447.844,560.185 L447.844,560.185 Q445.921,560.185,443.785,561.653 L443.785,561.653 L443.251,560.051 Q445.601,558.555,448.031,558.555 L448.031,558.555 Q448.859,558.555,449.58,558.756 Q450.301,558.956,451.009,559.45 Q451.717,559.944,452.144,560.919 Q452.571,561.894,452.571,563.282 L452.571,563.282 L452.571,572.522 Z M447.016,571.214 L447.016,571.214 Q449.126,571.214,450.835,569.104 L450.835,569.104 L450.835,566.46 Q449.153,565.339,447.337,565.339 L447.337,565.339 Q445.868,565.339,444.893,566.073 Q443.919,566.808,443.919,568.223 L443.919,568.223 Q443.919,569.585,444.733,570.399 Q445.548,571.214,447.016,571.214 Z M465.123,577.703 L463.28,577.703 L465.31,572.095 L460.316,558.876 L462.212,558.876 L465.657,568.57 Q465.737,568.837,465.897,569.318 Q466.057,569.799,466.111,569.959 L466.111,569.959 L466.592,568.57 L470.09,558.876 L472.093,558.876 L465.123,577.703 Z M494.659,572.522 L492.79,572.522 L492.79,553.829 L503.712,553.829 L503.712,555.618 L494.659,555.618 L494.659,561.974 L500.775,561.974 L500.775,563.736 L494.659,563.736 L494.659,572.522 Z M520.109,572.522 L518.374,572.522 L518.374,571.187 Q516.531,572.843,514.368,572.843 L514.368,572.843 Q512.231,572.843,510.976,571.655 Q509.721,570.466,509.721,568.223 L509.721,568.223 Q509.721,566.006,511.15,564.858 Q512.579,563.71,514.688,563.71 L514.688,563.71 Q516.584,563.71,518.374,564.671 L518.374,564.671 L518.374,563.523 Q518.374,560.185,515.383,560.185 L515.383,560.185 Q513.46,560.185,511.323,561.653 L511.323,561.653 L510.789,560.051 Q513.139,558.555,515.57,558.555 L515.57,558.555 Q516.397,558.555,517.118,558.756 Q517.84,558.956,518.547,559.45 Q519.255,559.944,519.682,560.919 Q520.109,561.894,520.109,563.282 L520.109,563.282 L520.109,572.522 Z M514.555,571.214 L514.555,571.214 Q516.664,571.214,518.374,569.104 L518.374,569.104 L518.374,566.46 Q516.691,565.339,514.875,565.339 L514.875,565.339 Q513.406,565.339,512.432,566.073 Q511.457,566.808,511.457,568.223 L511.457,568.223 Q511.457,569.585,512.271,570.399 Q513.086,571.214,514.555,571.214 Z M547.563,572.522 L545.693,572.522 L545.693,564.164 Q545.693,560.238,542.729,560.238 L542.729,560.238 Q541.26,560.238,540.419,561.373 Q539.578,562.508,539.578,564.164 L539.578,564.164 L539.578,572.522 L537.708,572.522 L537.708,564.164 Q537.708,560.238,534.744,560.238 L534.744,560.238 Q533.222,560.238,532.407,561.266 Q531.593,562.294,531.593,563.95 L531.593,563.95 L531.593,572.522 L529.724,572.522 L529.724,558.876 L531.593,558.876 L531.593,560.211 Q533.008,558.555,535.305,558.555 L535.305,558.555 Q536.4,558.555,537.415,559.116 Q538.43,559.677,538.99,560.639 L538.99,560.639 Q539.578,559.731,540.606,559.143 Q541.634,558.555,542.889,558.555 L542.889,558.555 Q544.919,558.555,546.241,559.891 Q547.563,561.226,547.563,563.443 L547.563,563.443 L547.563,572.522 Z M559.42,555.725 Q559.073,556.072,558.539,556.072 Q558.005,556.072,557.658,555.725 Q557.31,555.378,557.31,554.843 Q557.31,554.309,557.671,553.935 Q558.031,553.562,558.539,553.562 L558.539,553.562 Q559.073,553.562,559.42,553.935 Q559.767,554.309,559.767,554.843 Q559.767,555.378,559.42,555.725 Z M559.473,572.522 L557.604,572.522 L557.604,558.876 L559.473,558.876 L559.473,572.522 Z M571.651,572.522 L569.782,572.522 L569.782,554.149 L571.651,553.241 L571.651,572.522 Z M585.405,577.703 L583.562,577.703 L585.592,572.095 L580.598,558.876 L582.494,558.876 L585.939,568.57 Q586.019,568.837,586.179,569.318 Q586.339,569.799,586.393,569.959 L586.393,569.959 L586.873,568.57 L590.372,558.876 L592.375,558.876 L585.405,577.703 Z M614.941,572.522 L613.072,572.522 L613.072,553.829 L623.994,553.829 L623.994,555.618 L614.941,555.618 L614.941,561.974 L621.056,561.974 L621.056,563.736 L614.941,563.736 L614.941,572.522 Z M633.074,572.522 L631.205,572.522 L631.205,558.876 L633.074,558.876 L633.074,560.799 Q634.115,558.555,636.519,558.555 L636.519,558.555 Q637.667,558.555,638.442,559.116 L638.442,559.116 L638.148,560.932 Q637.32,560.425,636.385,560.425 L636.385,560.425 Q635.13,560.425,634.102,561.48 Q633.074,562.535,633.074,564.805 L633.074,564.805 L633.074,572.522 Z M651.714,572.843 L651.714,572.843 Q649.044,572.843,647.415,570.76 Q645.786,568.677,645.786,565.686 L645.786,565.686 Q645.786,562.348,647.415,560.452 Q649.044,558.555,651.714,558.555 L651.714,558.555 Q654.065,558.555,655.587,560.225 Q657.109,561.894,657.109,565.152 L657.109,565.152 Q657.109,565.873,657.056,566.46 L657.056,566.46 L647.762,566.46 Q648.002,568.597,649.044,569.852 Q650.085,571.107,651.795,571.107 L651.795,571.107 Q653.424,571.107,654.866,570.039 L654.866,570.039 L655.881,571.294 Q654.011,572.843,651.714,572.843 Z M647.709,564.778 L647.709,564.778 L655.213,564.778 Q655.186,562.294,654.131,561.266 Q653.076,560.238,651.714,560.238 L651.714,560.238 Q650.005,560.238,648.91,561.386 Q647.815,562.535,647.709,564.778 Z M670.034,572.843 L670.034,572.843 Q667.337,572.843,665.334,570.466 L665.334,570.466 L666.643,569.318 Q668.218,571.187,670.195,571.187 L670.195,571.187 Q671.37,571.187,672.117,570.666 Q672.865,570.146,672.865,569.211 L672.865,569.211 Q672.865,568.623,672.598,568.156 Q672.331,567.689,671.757,567.302 Q671.183,566.914,670.729,566.701 Q670.275,566.487,669.474,566.167 L669.474,566.167 Q668.512,565.766,667.898,565.446 Q667.284,565.125,666.643,564.644 Q666.002,564.164,665.695,563.509 Q665.388,562.855,665.388,562.027 L665.388,562.027 Q665.388,560.478,666.616,559.517 Q667.845,558.555,669.794,558.555 L669.794,558.555 Q672.491,558.555,674.227,560.639 L674.227,560.639 L672.999,561.68 Q671.53,560.211,669.741,560.211 L669.741,560.211 Q668.566,560.211,667.858,560.692 Q667.15,561.173,667.15,562.001 L667.15,562.001 Q667.15,562.401,667.337,562.748 Q667.524,563.095,667.764,563.322 Q668.005,563.549,668.512,563.83 Q669.02,564.11,669.313,564.23 Q669.607,564.351,670.275,564.618 L670.275,564.618 Q671.076,564.938,671.53,565.138 Q671.984,565.339,672.665,565.753 Q673.346,566.167,673.706,566.581 Q674.067,566.994,674.347,567.649 Q674.628,568.303,674.628,569.104 L674.628,569.104 Q674.628,570.813,673.386,571.828 Q672.144,572.843,670.034,572.843 Z M685.764,572.522 L683.895,572.522 L683.895,554.122 L685.764,553.241 L685.764,560.398 Q686.992,558.555,689.289,558.555 L689.289,558.555 Q691.799,558.555,692.988,560.078 Q694.176,561.6,694.176,564.965 L694.176,564.965 L694.176,572.522 L692.307,572.522 L692.307,564.19 Q692.307,562.134,691.452,561.186 Q690.598,560.238,689.129,560.238 L689.129,560.238 Q685.764,560.238,685.764,564.137 L685.764,564.137 L685.764,572.522 Z"></path>
		<mask id="mask-2" x="315.908" y="408.219" width="660.832" height="120.948" maskUnits="userSpaceOnUse" stroke-width="0">
			<rect x="321.406" y="413.717" width="649.837" height="109.953" fill="#000"></rect>
			<use xlink:href="#def-6" fill="#fff" stroke="#fff"></use>
			<use xlink:href="#def-5" fill="#fff" stroke="#fff"></use>
		</mask>
		<mask id="mask-3" x="-2.005" y="344.051" width="712.861" height="311.897" maskUnits="userSpaceOnUse" stroke-width="0">
			<rect x="12.172" y="358.229" width="684.507" height="283.543" fill="#000"></rect>
			<use xlink:href="#def-4" fill="#fff" stroke="#fff"></use>
			<use xlink:href="#def-7" fill="#fff" stroke="#fff"></use>
		</mask>
	</defs>
	<g mask="url(#mask-2)">
		<rect x="321.406" y="413.717" width="649.837" height="109.953" fill="#fff"></rect>
	</g>
	<g mask="url(#mask-3)">
		<rect x="12.172" y="358.229" width="684.507" height="283.543" fill="#fff"></rect>
	</g>
</svg>
