<?xml version="1.0" encoding="UTF-8"?>
<!-- My Brand New Logo (1.0.87), id: jjmQn4w8yZF7Jp3p9l5p (1.0.7), date: 2021-08-18 00:36 -->
<svg version="1.1" preserveAspectRatio="xMidYMid meet" xmlns="http://www.w3.org/2000/svg" xmlns:xlink="http://www.w3.org/1999/xlink" viewBox="186.203 185.766 627.595 628.468" width="1000" height="1000">
	<defs>
		<path id="def-1" d="M792.631,500 A292.631,292.631 0 1 0 207.369,500 A292.631,292.631 0 1 0 792.631,500 Z" stroke-linecap="round" stroke-linejoin="round" stroke-miterlimit="25"></path>
		<g id="def-2">
			<path d="M227.658,500 A272.342,272.342 0 1 0 772.342,500 A272.342,272.342 0 1 0 227.658,500 Z M761.111,500 A261.111,261.111 0 1 1 238.889,500 A261.111,261.111 0 1 1 761.111,500 Z" fill="#000"></path>
			<use xlink:href="#def-1" fill="none" stroke="#000" stroke-width="9.318"></use>
		</g>
		<g id="def-3" transform="matrix(2.947, 0, 0, 2.947, 351.151, 356.159)" fill="#000" stroke="none" stroke-width="1">
			<g transform="translate(0.501, 0.5)">
				<g></g>
				<path fill="#000" d=" M80.989,6.423 C62.306 -4.253,44.597,1.167,39.613,3.083 c-4.997,1.924 -9.272,6.055 -10.914,7.781 c-0.684 -0.358 -1.502 -0.721 -2.499 -1.078 C21.176,7.988,14.274,9.485,9.028,13.51 c-3.774,2.895 -9.951,9.651 -8.912,22.374 C1.163,48.719,8.662,54.924,14.383,57.82 c-0.187,0.255 -0.3,0.566 -0.3,0.906 V76.17 v0.001 h-2.754 c-0.85,0 -1.54,0.689 -1.54,1.539 c0,0.001,0,0.001,0,0.001 c0,0.001,0,0.002,0,0.002 L9.786,95.061 c0,0.85,0.689,1.539,1.539,1.539 c0,0,0,0,0,0 c0,0,0.001,0,0.001,0 s0.001,0,0.001,0 l75.098,0.003 c0.85,0,1.539 -0.689,1.539 -1.539 c0 -0.072 -0.013 -0.141 -0.021 -0.211 c0.009 -0.07,0.021 -0.14,0.021 -0.212 V78.223 c0 -0.088 -0.013 -0.172 -0.026 -0.255 c0.014 -0.083,0.026 -0.167,0.026 -0.255 c0 -0.85 -0.689 -1.539 -1.539 -1.539 l-69.266 -0.003 V76.17 V59.053 c2.246,0.854,3.806,1.122,3.86,1.13 c0.068,0.011,0.136,0.016,0.203,0.016 c0.62,0,1.165 -0.449,1.265 -1.081 c0.111 -0.699 -0.365 -1.356 -1.064 -1.468 c-0.172 -0.027 -17.2 -2.956 -18.752 -21.975 c-0.939 -11.511,4.557 -17.553,7.916 -20.13 c4.512 -3.46,10.578 -4.834,14.749 -3.342 c3.401,1.215,4.089,2.333,4.162,2.468 c0.188,0.628,0.827,1.02,1.482,0.886 c0.694 -0.14,1.144 -0.817,1.003 -1.511 c-0.057 -0.281 -0.281 -0.923 -1.13 -1.715 c1.685 -1.721,5.463 -5.229,9.68 -6.853 c4.717 -1.814,21.481 -6.943,39.182,3.173 c19.007,10.864,17.837,26.578,17.642,28.334 l-0.028,0.249 c-0.376,3.41 -1.375,12.466 -7.864,16.375 c-4.49,2.704 -10.894,2.558 -19.038 -0.424 c0.729 -0.668,1.46 -1.378,2.194 -2.18 c0.479 -0.522,0.443 -1.334 -0.08 -1.812 c-0.521 -0.478 -1.334 -0.442 -1.812,0.08 c-3.818,4.169 -7.412,6.288 -10.686,6.298 c-0.008,0 -0.015,0 -0.021,0 c-3.901,0 -6.717 -3.04 -8.4 -4.856 c-0.298 -0.322 -0.563 -0.609 -0.797 -0.841 c-0.501 -0.499 -1.313 -0.497 -1.814,0.006 c-0.499,0.502 -0.497,1.314,0.006,1.813 c0.211,0.211,0.452,0.472,0.724,0.764 c1.839,1.986,5.259,5.68,10.282,5.68 c0.009,0,0.019,0,0.028,0 c2.622 -0.009,5.332 -1.05,8.101 -3.069 c4.688,1.851,8.904,2.845,12.631,2.999 V76.17 h3.079 V57.993 c2.595 -0.249,4.912 -0.972,6.927 -2.186 c7.576 -4.563,8.678 -14.538,9.092 -18.292 l0.026 -0.246 C100.122,35.342,101.419,18.1,80.989,6.423 z M84.887,93.525 l-43.098 -0.002 V79.251 l43.098,0.002 V93.525 z M38.71,93.523 H33.58 V79.251 h5.131 V93.523 z M30.501,93.523 h-5.13 V79.251 h5.13 V93.523 z M22.292,93.522 h-9.427 l0.002 -14.271 h9.425 V93.522 z"></path>
			</g>
		</g>
		<mask id="mask-1" x="93.909" y="93.473" width="812.181" height="813.054" maskUnits="userSpaceOnUse" stroke-width="0">
			<rect x="130.827" y="130.39" width="738.347" height="739.22" fill="#fff"></rect>
			<use xlink:href="#def-2"></use>
			<use xlink:href="#def-3"></use>
		</mask>
		<g id="def-4" mask="url(#mask-1)">
			<use xlink:href="#def-1" stroke-width="30.026"></use>
		</g>
		<linearGradient id="gradient-1" gradientUnits="objectBoundingBox" x1="0.146" y1="0.146" x2="0.854" y2="0.854">
			<stop offset="0" stop-color="#793522" stop-opacity="1"></stop>
			<stop offset="0.167" stop-color="#772b21" stop-opacity="1"></stop>
			<stop offset="0.333" stop-color="#752020" stop-opacity="1"></stop>
			<stop offset="0.5" stop-color="#72101f" stop-opacity="1"></stop>
			<stop offset="0.667" stop-color="#6e001f" stop-opacity="1"></stop>
			<stop offset="0.833" stop-color="#6b0021" stop-opacity="1"></stop>
			<stop offset="1" stop-color="#660023" stop-opacity="1"></stop>
		</linearGradient>
		<mask id="mask-2" x="93.866" y="93.429" width="1101.945" height="813.142" maskUnits="userSpaceOnUse" stroke-width="0">
			<rect x="130.827" y="130.39" width="1028.023" height="739.22" fill="#000"></rect>
			<use xlink:href="#def-4" fill="#fff" stroke="#fff"></use>
		</mask>
		<pattern id="def-5" patternUnits="userSpaceOnUse" patternContentUnits="userSpaceOnUse" patternTransform="rotate(180, 644.838, 500) translate(644.838, 500) scale(1) translate(-644.838, -500)" x="631.9739612266133" y="492.9044465571691" width="25.728" height="14.191" viewBox="0 0 25.728 14.191">
			<path d="M-12.864,-2.207 L12.864,-14.191 L38.592,-2.207 M-12.864,11.984 L12.864,0 L38.592,11.984 M-12.864,26.175 L12.864,14.191 L38.592,26.175" fill="none" stroke="#9c4800" stroke-width="5.159" stroke-opacity="0.3" stroke-linecap="square"></path>
		</pattern>
	</defs>
	<g mask="url(#mask-2)">
		<rect x="130.827" y="130.39" width="1028.023" height="739.22" fill="url(#gradient-1)"></rect>
		<g>
			<rect x="130.8266737901768" y="130.39010457630962" width="1028.0228210289397" height="739.219787269581" fill="url(#def-5)"></rect>
		</g>
	</g>
</svg>
